bicep_curl
version=1
nRows=101
nColumns=3
inDegrees=yes

# SIMM Motion File Header:
name bicep_curl
datacolumns 3
datarows 101
otherdata 1
range 0.0000 1.0000
endheader
time	/jointset/r_shoulder/r_shoulder_elev/value	/jointset/r_elbow/r_elbow_flex/value
0.0000	0.0000	21.0000
0.0100	0.0000	21.0448
0.0200	0.0000	21.0916
0.0300	0.0000	21.1405
0.0400	0.0000	21.1916
0.0500	0.0000	21.2450
0.0600	0.0000	21.3007
0.0700	0.0000	21.3590
0.0800	0.0000	21.4199
0.0900	0.0000	21.4835
0.1000	0.0000	21.5499
0.1100	0.0000	21.6193
0.1200	0.0000	21.6919
0.1300	0.0000	21.7677
0.1400	0.0000	21.8469
0.1500	0.0000	21.9296
0.1600	0.0000	22.0160
0.1700	0.0000	22.1063
0.1800	0.0000	22.2007
0.1900	0.0000	22.2993
0.2000	0.0000	22.4022
0.2100	0.0000	22.5099
0.2200	0.0000	22.6223
0.2300	0.0000	22.7397
0.2400	0.0000	22.8625
0.2500	0.0000	22.9907
0.2600	0.0000	23.1247
0.2700	0.0000	23.2646
0.2800	0.0000	23.4109
0.2900	0.0000	23.5637
0.3000	0.0000	23.7233
0.3100	0.0000	23.8901
0.3200	0.0000	24.0643
0.3300	0.0000	24.2464
0.3400	0.0000	24.4366
0.3500	0.0000	24.6353
0.3600	0.0000	24.8430
0.3700	0.0000	25.0599
0.3800	0.0000	25.2866
0.3900	0.0000	25.5234
0.4000	0.0000	25.7708
0.4100	0.0000	26.0293
0.4200	0.0000	26.2994
0.4300	0.0000	26.5816
0.4400	0.0000	26.8764
0.4500	0.0000	27.1844
0.4600	0.0000	27.5062
0.4700	0.0000	27.8425
0.4800	0.0000	28.1938
0.4900	0.0000	28.5608
0.5000	0.0000	28.9443
0.5100	0.0000	29.3449
0.5200	0.0000	29.7635
0.5300	0.0000	30.2009
0.5400	0.0000	30.6578
0.5500	0.0000	31.1352
0.5600	0.0000	31.6340
0.5700	0.0000	32.1552
0.5800	0.0000	32.6997
0.5900	0.0000	33.2685
0.6000	0.0000	33.8629
0.6100	0.0000	34.4839
0.6200	0.0000	35.1327
0.6300	0.0000	35.8105
0.6400	0.0000	36.5188
0.6500	0.0000	37.2587
0.6600	0.0000	38.0318
0.6700	0.0000	38.8395
0.6800	0.0000	39.6834
0.6900	0.0000	40.5652
0.7000	0.0000	41.4864
0.7100	0.0000	42.4488
0.7200	0.0000	43.4544
0.7300	0.0000	44.5051
0.7400	0.0000	45.6027
0.7500	0.0000	46.7496
0.7600	0.0000	47.9478
0.7700	0.0000	49.1998
0.7800	0.0000	50.5078
0.7900	0.0000	51.8743
0.8000	0.0000	53.3021
0.8100	0.0000	54.7939
0.8200	0.0000	56.3525
0.8300	0.0000	57.9809
0.8400	0.0000	59.6822
0.8500	0.0000	61.4597
0.8600	0.0000	63.3169
0.8700	0.0000	65.2573
0.8800	0.0000	67.2845
0.8900	0.0000	69.4026
0.9000	0.0000	71.6156
0.9100	0.0000	73.9277
0.9200	0.0000	76.3434
0.9300	0.0000	78.8672
0.9400	0.0000	81.5042
0.9500	0.0000	84.2592
0.9600	0.0000	87.1377
0.9700	0.0000	90.1451
0.9800	0.0000	93.2872
0.9900	0.0000	96.5701
1.0000	0.0000	100.0000
